<?xml version="1.0" encoding="utf-8"?>
<svg version="1.1" xmlns="http://www.w3.org/2000/svg" xmlns:xlink="http://www.w3.org/1999/xlink" x="0px" y="0px" viewBox="0 0 114 55" style="enable-background:new 0 0 114 55;" xml:space="preserve">
<!--<style type="text/css">
	.brand-color-00{fill:#3D4543;}
	.brand-color-01{fill:#238DC1;}
</style>-->
	<g class="brand-color-00">
		<path d="M0,52.4C0,53.8,1.2,55,2.6,55v0H13v0h26.3c-5.8-2.6-10.6-7.3-13.3-13H13v-9L0,33.8V52.4z"/>
		<path d="M66.2,34c-1.1,2.2-2.8,4.1-4.8,5.5c0,0,0,0-0.1,0c-0.1,0.1-0.2,0.1-0.3,0.2c0,0-0.1,0-0.1,0.1 c-0.1,0.1-0.2,0.1-0.3,0.2c0,0-0.1,0-0.1,0.1c-0.1,0.1-0.2,0.1-0.3,0.2c0,0-0.1,0.1-0.1,0.1c-0.1,0.1-0.2,0.1-0.3,0.1 c-0.1,0-0.1,0.1-0.2,0.1c-0.1,0-0.2,0.1-0.3,0.1c-0.1,0-0.1,0.1-0.2,0.1c-0.1,0-0.2,0.1-0.3,0.1c-0.1,0-0.1,0.1-0.2,0.1 c-0.1,0-0.2,0.1-0.3,0.1c-0.1,0-0.1,0.1-0.2,0.1c-0.1,0-0.2,0.1-0.3,0.1c-0.1,0-0.2,0.1-0.2,0.1c-0.1,0-0.2,0.1-0.3,0.1 c-0.1,0-0.2,0-0.2,0.1c-0.1,0-0.2,0-0.3,0.1c-0.1,0-0.2,0-0.3,0.1c-0.1,0-0.2,0-0.3,0.1c-0.1,0-0.2,0-0.3,0.1c-0.1,0-0.2,0-0.2,0 c-0.1,0-0.2,0-0.3,0c-0.1,0-0.2,0-0.2,0c-0.1,0-0.2,0-0.3,0c-0.1,0-0.2,0-0.2,0c-0.1,0-0.2,0-0.3,0c-0.1,0-0.1,0-0.2,0 c-0.1,0-0.2,0-0.4,0c-0.1,0-0.1,0-0.2,0c-0.2,0-0.4,0-0.5,0c-1.6,0-3.1-0.3-4.5-0.7c-4.6-1.5-8.2-5.3-9.4-10l-12.9,0.8 c1.6,9.7,8.4,17.7,17.4,21c3,1.1,6.2,1.7,9.5,1.7c0.3,0,0.7,0,1,0c0.1,0,0.2,0,0.3,0c0.2,0,0.5,0,0.7,0c0.1,0,0.2,0,0.3,0 c0.3,0,0.5,0,0.8-0.1c0.1,0,0.2,0,0.2,0c1.6-0.2,3.1-0.5,4.5-1c0,0,0.1,0,0.1,0c0.3-0.1,0.5-0.2,0.8-0.2c0,0,0.1,0,0.1,0 c0.2-0.1,0.5-0.2,0.7-0.2c0.1,0,0.1,0,0.2-0.1c0.2-0.1,0.4-0.2,0.7-0.3c0.1,0,0.1,0,0.2-0.1c0.2-0.1,0.4-0.2,0.6-0.3 c0.1,0,0.1-0.1,0.2-0.1c0.2-0.1,0.4-0.2,0.6-0.3c0.1,0,0.1-0.1,0.2-0.1c0.2-0.1,0.4-0.2,0.6-0.3c0.1,0,0.1-0.1,0.2-0.1 c0.2-0.1,0.4-0.2,0.6-0.3c0,0,0.1-0.1,0.1-0.1c0.2-0.1,0.4-0.2,0.6-0.4c0,0,0.1-0.1,0.1-0.1c0.2-0.1,0.4-0.3,0.6-0.4 c0,0,0.1,0,0.1-0.1c0.2-0.1,0.4-0.3,0.6-0.4c0,0,0.1,0,0.1-0.1c0.2-0.2,0.4-0.3,0.7-0.5c0,0,0,0,0,0c0.2-0.2,0.5-0.4,0.7-0.5 c0,0,0,0,0,0c-2.5,2.7-5.5,4.9-8.8,6.4h7.4c1.1,0,2-0.6,2.4-1.5l0.1-0.1L82,28.5l-13.8,0.9L66.2,34z"/>
		<path d="M113.7,51.3L103.6,27l-13.1,0.9l2.6,6.2H82.5l-4.4,10.4h19.3l3.7,8.8h0c0,0,0,0,0,0c0,0,0,0.1,0.1,0.1 c0,0,0,0.1,0,0.1c0,0,0,0.1,0.1,0.1c0,0,0,0.1,0,0.1c0,0,0,0.1,0.1,0.1c0,0,0,0,0,0.1c0,0.1,0.1,0.1,0.1,0.2c0,0,0,0.1,0.1,0.1 c0,0,0.1,0.1,0.1,0.1c0,0,0.1,0.1,0.1,0.1c0,0,0.1,0,0.1,0.1c0.1,0,0.1,0.1,0.2,0.1c0,0,0,0,0.1,0c0,0,0.1,0.1,0.1,0.1 c0,0,0.1,0,0.1,0c0,0,0.1,0,0.1,0.1c0,0,0,0,0.1,0c0.1,0,0.1,0.1,0.2,0.1c0,0,0,0,0,0c0.1,0,0.1,0,0.2,0c0,0,0,0,0.1,0 c0.1,0,0.1,0,0.2,0c0,0,0,0,0.1,0c0.1,0,0.2,0,0.2,0h7.8c1.4,0,2.6-1.2,2.6-2.6c0-0.3-0.1-0.7-0.2-1L113.7,51.3z"/>
	</g>
	<g class="brand-color-01">
		<path d="M13,2.9C13,2.9,13,2.9,13,2.9C13,2.9,13,2.9,13,2.9c0-1.4-1.2-2.6-2.6-2.6H2.6C1.2,0.3,0,1.5,0,2.9v23.4h13 V2.9z"/>
		<path d="M53.3,13.1c1.6,0,3.1,0.3,4.5,0.7l0,0c0.2,0.1,0.5,0.1,0.7,0.1c1,0,1.8-0.5,2.3-1.3c0.1-0.2,0.2-0.3,0.2-0.5 l2.5-5.9l0.3-0.7l0.1-0.3C64,4.9,64,4.6,64,4.3c0-1.1-0.7-2-1.6-2.4c-0.1,0-0.2-0.1-0.3-0.1c-2.8-1-5.8-1.5-8.9-1.5 c-0.2,0-0.5,0-0.7,0c-0.1,0-0.2,0-0.2,0c-0.2,0-0.3,0-0.5,0c-0.1,0-0.2,0-0.3,0c-0.1,0-0.3,0-0.4,0c-0.1,0-0.2,0-0.3,0 c-0.1,0-0.3,0-0.4,0c-0.1,0-0.2,0-0.3,0c-0.1,0-0.3,0-0.4,0c-0.1,0-0.2,0-0.3,0c-0.1,0-0.3,0-0.4,0.1c-0.1,0-0.2,0-0.3,0 c-0.1,0-0.3,0-0.4,0.1c-0.1,0-0.2,0-0.3,0.1c-0.1,0-0.3,0.1-0.4,0.1c-0.1,0-0.2,0-0.3,0.1C47.2,1,47.1,1,47,1.1 c-0.1,0-0.2,0-0.3,0.1c-0.1,0-0.3,0.1-0.4,0.1c-0.1,0-0.2,0-0.3,0.1c-0.1,0-0.3,0.1-0.4,0.1c-0.1,0-0.2,0-0.2,0.1 c-0.1,0-0.3,0.1-0.4,0.1c-0.1,0-0.1,0-0.2,0.1c-0.1,0-0.3,0.1-0.4,0.2c-0.1,0-0.1,0-0.2,0.1C43.9,2,43.8,2,43.6,2.1 c-0.1,0-0.1,0-0.2,0.1c-0.2,0.1-0.3,0.1-0.5,0.2c0,0-0.1,0-0.1,0.1c-0.2,0.1-0.3,0.1-0.5,0.2c0,0-0.1,0-0.1,0 c-0.2,0.1-0.4,0.2-0.6,0.3c0,0,0,0,0,0c-2.5,1.2-4.8,2.8-6.8,4.6l0,0c-0.2,0.2-0.3,0.3-0.5,0.5c0,0,0,0,0,0 c-0.5,0.5-0.9,0.9-1.4,1.4c0,0,0,0,0,0c-0.1,0.2-0.3,0.3-0.4,0.5c0,0,0,0,0,0c-0.1,0.2-0.3,0.3-0.4,0.5c0,0,0,0,0,0 c-1.6,1.9-2.9,4.1-3.8,6.4c0,0,0,0,0,0c-0.1,0.2-0.1,0.3-0.2,0.5c0,0,0,0.1,0,0.1c-0.1,0.1-0.1,0.3-0.2,0.4c0,0.1,0,0.1-0.1,0.2 c-0.1,0.1-0.1,0.3-0.2,0.4c0,0.1,0,0.1-0.1,0.2c0,0.1-0.1,0.3-0.1,0.4c0,0.1,0,0.1-0.1,0.2c0,0.1-0.1,0.3-0.1,0.4 c0,0.1,0,0.2-0.1,0.2c0,0.1-0.1,0.2-0.1,0.4c0,0.1,0,0.2-0.1,0.3c0,0.1-0.1,0.2-0.1,0.4c0,0.1,0,0.2-0.1,0.3c0,0.1-0.1,0.2-0.1,0.4 c0,0.1,0,0.2-0.1,0.3c0,0.1,0,0.2-0.1,0.3c0,0.1,0,0.2-0.1,0.3c0,0.1,0,0.2-0.1,0.3c0,0.1,0,0.2-0.1,0.3c0,0.1,0,0.2-0.1,0.3 c0,0.1,0,0.2,0,0.3c0,0.1,0,0.2,0,0.3c0,0.1,0,0.2,0,0.4c0,0.1,0,0.2,0,0.3c0,0.1,0,0.2,0,0.4c0,0.1,0,0.2,0,0.3c0,0.1,0,0.3,0,0.4 c0,0.1,0,0.2,0,0.3c0,0,0,0.1,0,0.1h12.8C39.5,18.9,45.7,13.1,53.3,13.1z"/>
		<path d="M86.3,18.1l3.5,8.2h13.5L93.1,2l0,0h0c-0.4-1-1.3-1.7-2.5-1.7h-8.5h0v0C80.9,0.3,80,1,79.6,2h0v0l-5.8,13.9 l-4.4,10.4h13.5L86.3,18.1z"/>
	</g>
</svg>
